<svg width="143" height="48" viewBox="0 0 143 48" fill="none" xmlns="http://www.w3.org/2000/svg">
<rect x="0.5" y="0.5" width="142" height="47" rx="7.5" fill="white"/>
<rect x="0.5" y="0.5" width="142" height="47" rx="7.5" stroke="white"/>
<path d="M34.7045 24.7631C34.7166 23.8432 34.9669 22.9412 35.4321 22.1411C35.8972 21.341 36.5621 20.6688 37.3648 20.187C36.8548 19.4759 36.1821 18.8908 35.4 18.478C34.6178 18.0652 33.7479 17.8361 32.8592 17.809C30.9635 17.6147 29.1258 18.9164 28.1598 18.9164C27.1751 18.9164 25.6878 17.8282 24.0862 17.8604C23.0502 17.8931 22.0406 18.1872 21.1557 18.7141C20.2708 19.241 19.5407 19.9826 19.0367 20.8669C16.8535 24.5573 18.482 29.9809 20.5734 32.964C21.6197 34.4247 22.8426 36.0563 24.4428 35.9985C26.0086 35.9351 26.5934 35.0237 28.4835 35.0237C30.3561 35.0237 30.9048 35.9985 32.5374 35.9617C34.2176 35.9351 35.2762 34.4945 36.2859 33.0199C37.0377 31.9791 37.6162 30.8288 38 29.6116C37.0238 29.2085 36.1908 28.5338 35.6048 27.6716C35.0187 26.8094 34.7056 25.7979 34.7045 24.7631Z" fill="#111827"/>
<path d="M31.621 15.8471C32.5372 14.7734 32.9885 13.3934 32.8792 12C31.4796 12.1435 30.1867 12.7966 29.2582 13.8291C28.8043 14.3335 28.4566 14.9203 28.235 15.556C28.0135 16.1917 27.9224 16.8638 27.9671 17.5338C28.6672 17.5408 29.3597 17.3927 29.9927 17.1005C30.6256 16.8084 31.1824 16.3798 31.621 15.8471Z" fill="#111827"/>
<path d="M47.026 18H46.108L48.484 11.493H49.465L51.85 18H50.923L50.338 16.38H47.602L47.026 18ZM48.862 12.897L47.872 15.615H50.077L49.078 12.897C49.033 12.771 48.988 12.618 48.97 12.519C48.952 12.609 48.907 12.762 48.862 12.897ZM53.4964 18L51.7234 13.599H52.6234L53.5864 16.056C53.7394 16.47 53.8654 16.839 53.9374 17.109C54.0094 16.821 54.1534 16.443 54.3064 16.056L55.2874 13.599H56.1694L54.3334 18H53.4964ZM57.9273 18.108C56.9823 18.108 56.4243 17.577 56.4243 16.776C56.4243 15.966 57.0273 15.462 58.0623 15.381L59.4483 15.273V15.147C59.4483 14.409 59.0073 14.148 58.4133 14.148C57.7023 14.148 57.2973 14.463 57.2973 14.994H56.5593C56.5593 14.076 57.3153 13.473 58.4493 13.473C59.5383 13.473 60.2763 14.049 60.2763 15.237V18H59.5563L59.4663 17.289C59.2413 17.793 58.6383 18.108 57.9273 18.108ZM58.1703 17.451C58.9713 17.451 59.4573 16.929 59.4573 16.101V15.867L58.3323 15.957C57.5853 16.029 57.2793 16.317 57.2793 16.749C57.2793 17.217 57.6213 17.451 58.1703 17.451ZM61.8619 12.555C61.5559 12.555 61.3039 12.303 61.3039 11.997C61.3039 11.682 61.5559 11.439 61.8619 11.439C62.1679 11.439 62.4199 11.682 62.4199 11.997C62.4199 12.303 62.1679 12.555 61.8619 12.555ZM61.4479 18V13.599H62.2939V18H61.4479ZM64.3862 18H63.5402V11.376H64.3862V18ZM66.9185 18.108C65.9735 18.108 65.4155 17.577 65.4155 16.776C65.4155 15.966 66.0185 15.462 67.0535 15.381L68.4395 15.273V15.147C68.4395 14.409 67.9985 14.148 67.4045 14.148C66.6935 14.148 66.2885 14.463 66.2885 14.994H65.5505C65.5505 14.076 66.3065 13.473 67.4405 13.473C68.5295 13.473 69.2675 14.049 69.2675 15.237V18H68.5475L68.4575 17.289C68.2325 17.793 67.6295 18.108 66.9185 18.108ZM67.1615 17.451C67.9625 17.451 68.4485 16.929 68.4485 16.101V15.867L67.3235 15.957C66.5765 16.029 66.2705 16.317 66.2705 16.749C66.2705 17.217 66.6125 17.451 67.1615 17.451ZM71.2041 18H70.4391V11.376H71.2851V14.355C71.5731 13.779 72.1671 13.473 72.8871 13.473C74.1471 13.473 74.9031 14.463 74.9031 15.822C74.9031 17.154 74.1111 18.108 72.8331 18.108C72.1401 18.108 71.5551 17.802 71.2671 17.199L71.2041 18ZM71.2941 15.786C71.2941 16.704 71.8161 17.343 72.6801 17.343C73.5441 17.343 74.0571 16.695 74.0571 15.786C74.0571 14.886 73.5441 14.238 72.6801 14.238C71.8161 14.238 71.2941 14.886 71.2941 15.786ZM76.6996 18H75.8536V11.376H76.6996V18ZM79.844 18.108C78.548 18.108 77.657 17.172 77.657 15.804C77.657 14.427 78.53 13.473 79.808 13.473C81.059 13.473 81.878 14.337 81.878 15.642V15.957L78.476 15.966C78.539 16.893 79.025 17.406 79.862 17.406C80.519 17.406 80.951 17.136 81.095 16.632H81.887C81.671 17.577 80.933 18.108 79.844 18.108ZM79.808 14.184C79.07 14.184 78.602 14.625 78.494 15.399H81.032C81.032 14.67 80.555 14.184 79.808 14.184ZM84.9239 16.722H85.7339C85.7339 17.172 86.0759 17.442 86.6339 17.442C87.2279 17.442 87.5699 17.199 87.5699 16.794C87.5699 16.497 87.4259 16.317 86.9669 16.2L86.1929 16.02C85.4099 15.831 85.0409 15.444 85.0409 14.796C85.0409 13.986 85.7249 13.473 86.6969 13.473C87.6599 13.473 88.2899 14.013 88.3079 14.85H87.4979C87.4799 14.409 87.1829 14.13 86.6699 14.13C86.1389 14.13 85.8419 14.364 85.8419 14.769C85.8419 15.066 86.0579 15.264 86.4899 15.372L87.2639 15.561C88.0109 15.741 88.3799 16.083 88.3799 16.74C88.3799 17.577 87.6599 18.108 86.6159 18.108C85.5809 18.108 84.9239 17.559 84.9239 16.722ZM89.0301 15.795C89.0301 14.436 90.0021 13.482 91.3251 13.482C92.6391 13.482 93.6111 14.436 93.6111 15.795C93.6111 17.154 92.6391 18.108 91.3251 18.108C90.0021 18.108 89.0301 17.154 89.0301 15.795ZM89.8851 15.795C89.8851 16.713 90.4701 17.352 91.3251 17.352C92.1711 17.352 92.7651 16.713 92.7651 15.795C92.7651 14.877 92.1711 14.238 91.3251 14.238C90.4701 14.238 89.8851 14.877 89.8851 15.795ZM94.2595 15.795C94.2595 14.436 95.2315 13.482 96.5545 13.482C97.8685 13.482 98.8405 14.436 98.8405 15.795C98.8405 17.154 97.8685 18.108 96.5545 18.108C95.2315 18.108 94.2595 17.154 94.2595 15.795ZM95.1145 15.795C95.1145 16.713 95.6995 17.352 96.5545 17.352C97.4005 17.352 97.9945 16.713 97.9945 15.795C97.9945 14.877 97.4005 14.238 96.5545 14.238C95.6995 14.238 95.1145 14.877 95.1145 15.795ZM100.623 18H99.777V13.599H100.542L100.632 14.274C100.911 13.77 101.469 13.473 102.09 13.473C103.251 13.473 103.782 14.184 103.782 15.309V18H102.936V15.498C102.936 14.607 102.522 14.247 101.874 14.247C101.082 14.247 100.623 14.814 100.623 15.669V18ZM107.127 15.795C107.127 14.436 108.099 13.482 109.422 13.482C110.736 13.482 111.708 14.436 111.708 15.795C111.708 17.154 110.736 18.108 109.422 18.108C108.099 18.108 107.127 17.154 107.127 15.795ZM107.982 15.795C107.982 16.713 108.567 17.352 109.422 17.352C110.268 17.352 110.862 16.713 110.862 15.795C110.862 14.877 110.268 14.238 109.422 14.238C108.567 14.238 107.982 14.877 107.982 15.795ZM113.49 18H112.644V13.599H113.409L113.499 14.274C113.778 13.77 114.336 13.473 114.957 13.473C116.118 13.473 116.649 14.184 116.649 15.309V18H115.803V15.498C115.803 14.607 115.389 14.247 114.741 14.247C113.949 14.247 113.49 14.814 113.49 15.669V18Z" fill="#111827"/>
<path d="M48.2061 36H46.1758L50.3066 24.0029H52.5391L56.6611 36H54.5518L53.4883 32.6777H49.2783L48.2061 36ZM51.4316 26.0771H51.3525L49.7266 31.1484H53.04L51.4316 26.0771ZM62.2644 36.1318C61.0603 36.1318 60.1462 35.5605 59.654 34.708H59.5837V39.085H57.6325V26.71H59.531V28.0723H59.6013C60.1111 27.1846 61.0603 26.5869 62.3083 26.5869C64.3913 26.5869 65.8767 28.1602 65.8767 30.9375V31.7637C65.8767 34.5234 64.4089 36.1318 62.2644 36.1318ZM61.8161 34.5234C63.0554 34.5234 63.8991 33.5303 63.8991 31.6582V31.0078C63.8991 29.2061 63.1081 28.1777 61.781 28.1777C60.4187 28.1777 59.5661 29.2852 59.5661 30.999V31.6582C59.5661 33.416 60.4275 34.5234 61.8161 34.5234ZM72.183 36.1318C70.9789 36.1318 70.0649 35.5605 69.5727 34.708H69.5024V39.085H67.5512V26.71H69.4496V28.0723H69.52C70.0297 27.1846 70.9789 26.5869 72.227 26.5869C74.31 26.5869 75.7954 28.1602 75.7954 30.9375V31.7637C75.7954 34.5234 74.3276 36.1318 72.183 36.1318ZM71.7348 34.5234C72.9741 34.5234 73.8178 33.5303 73.8178 31.6582V31.0078C73.8178 29.2061 73.0268 28.1777 71.6996 28.1777C70.3373 28.1777 69.4848 29.2852 69.4848 30.999V31.6582C69.4848 33.416 70.3461 34.5234 71.7348 34.5234ZM79.8387 32.6689H81.7899C81.8778 33.7061 82.7919 34.5938 84.4882 34.5938C86.0438 34.5938 86.9667 33.8643 86.9667 32.7305C86.9667 31.8164 86.3514 31.3242 85.0682 31.0166L83.0995 30.5244C81.5526 30.1641 80.1639 29.2412 80.1639 27.29C80.1639 24.9961 82.1679 23.7393 84.497 23.7393C86.8261 23.7393 88.7684 24.9961 88.8124 27.2373H86.8964C86.8085 26.2178 86.0262 25.374 84.4706 25.374C83.0995 25.374 82.1679 26.0244 82.1679 27.1406C82.1679 27.9229 82.7128 28.4854 83.829 28.7402L85.7889 29.2236C87.5907 29.6631 88.9618 30.5156 88.9618 32.5547C88.9618 34.9102 87.0546 36.2373 84.3387 36.2373C80.9989 36.2373 79.8827 34.2861 79.8387 32.6689ZM91.3395 26.71V24.4512H93.2555V26.71H95.066V28.2744H93.2555V33.2314C93.2555 34.2422 93.6334 34.5234 94.6793 34.5234C94.8463 34.5234 95.0045 34.5234 95.1188 34.5059V36C94.9605 36.0264 94.5914 36.0615 94.1959 36.0615C91.9371 36.0615 91.3131 35.2529 91.3131 33.3896V28.2744H90.0299V26.71H91.3395ZM100.335 26.5518C103.007 26.5518 104.457 28.4326 104.457 30.9639V31.7109C104.457 34.3301 103.016 36.1582 100.335 36.1582C97.6546 36.1582 96.1956 34.3301 96.1956 31.7109V30.9639C96.1956 28.4414 97.6634 26.5518 100.335 26.5518ZM100.335 28.1162C98.8851 28.1162 98.1644 29.3027 98.1644 30.9902V31.7021C98.1644 33.3633 98.8763 34.585 100.335 34.585C101.794 34.585 102.497 33.3721 102.497 31.7021V30.9902C102.497 29.2939 101.785 28.1162 100.335 28.1162ZM106.106 36V26.71H108.057V27.9316H108.127C108.364 27.3516 109.059 26.5781 110.351 26.5781C110.606 26.5781 110.825 26.5957 111.01 26.6309V28.3535C110.843 28.3096 110.5 28.2832 110.175 28.2832C108.61 28.2832 108.083 29.25 108.083 30.498V36H106.106ZM115.743 36.1582C113.256 36.1582 111.674 34.5146 111.674 31.7637V30.8232C111.674 28.2305 113.22 26.5518 115.664 26.5518C118.142 26.5518 119.636 28.292 119.636 30.9111V31.7988H113.598V32.0186C113.598 33.583 114.442 34.6201 115.769 34.6201C116.762 34.6201 117.439 34.1279 117.677 33.3281H119.531C119.25 34.8311 118.037 36.1582 115.743 36.1582ZM113.598 30.4365H117.729V30.4189C117.729 29.1006 116.912 28.0635 115.673 28.0635C114.416 28.0635 113.598 29.1006 113.598 30.4189V30.4365Z" fill="#111827"/>
</svg>
