<svg width="24" height="25" viewBox="0 0 24 25" fill="none" xmlns="http://www.w3.org/2000/svg">
<path d="M16.5 0.637695H7.5C3.3585 0.637695 0 3.9962 0 8.1377V17.1377C0 21.2792 3.3585 24.6377 7.5 24.6377H16.5C20.6415 24.6377 24 21.2792 24 17.1377V8.1377C24 3.9962 20.6415 0.637695 16.5 0.637695ZM21.75 17.1377C21.75 20.0327 19.395 22.3877 16.5 22.3877H7.5C4.605 22.3877 2.25 20.0327 2.25 17.1377V8.1377C2.25 5.2427 4.605 2.8877 7.5 2.8877H16.5C19.395 2.8877 21.75 5.2427 21.75 8.1377V17.1377Z" fill="#E8E8E8"/>
<path d="M12 6.6377C8.6865 6.6377 6 9.3242 6 12.6377C6 15.9512 8.6865 18.6377 12 18.6377C15.3135 18.6377 18 15.9512 18 12.6377C18 9.3242 15.3135 6.6377 12 6.6377ZM12 16.3877C9.933 16.3877 8.25 14.7047 8.25 12.6377C8.25 10.5692 9.933 8.8877 12 8.8877C14.067 8.8877 15.75 10.5692 15.75 12.6377C15.75 14.7047 14.067 16.3877 12 16.3877Z" fill="#E8E8E8"/>
<path d="M18.4499 6.98718C18.8915 6.98718 19.2494 6.62923 19.2494 6.18768C19.2494 5.74612 18.8915 5.38818 18.4499 5.38818C18.0083 5.38818 17.6504 5.74612 17.6504 6.18768C17.6504 6.62923 18.0083 6.98718 18.4499 6.98718Z" fill="#E8E8E8"/>
</svg>
