<svg width="24" height="25" viewBox="0 0 24 25" fill="none" xmlns="http://www.w3.org/2000/svg">
<path d="M5.367 8.1377H0V24.6377H5.367V8.1377Z" fill="#E8E8E8"/>
<path d="M19.986 8.3312C19.929 8.3132 19.875 8.2937 19.815 8.2772C19.743 8.2607 19.671 8.2472 19.5975 8.2352C19.3125 8.1782 19.0005 8.1377 18.6345 8.1377C15.5055 8.1377 13.521 10.4132 12.867 11.2922V8.1377H7.5V24.6377H12.867V15.6377C12.867 15.6377 16.923 9.9887 18.6345 14.1377C18.6345 17.8412 18.6345 24.6377 18.6345 24.6377H24V13.5032C24 11.0102 22.2915 8.9327 19.986 8.3312Z" fill="#E8E8E8"/>
<path d="M2.625 5.8877C4.07475 5.8877 5.25 4.71245 5.25 3.2627C5.25 1.81295 4.07475 0.637695 2.625 0.637695C1.17525 0.637695 0 1.81295 0 3.2627C0 4.71245 1.17525 5.8877 2.625 5.8877Z" fill="#E8E8E8"/>
</svg>
