<svg width="143" height="48" viewBox="0 0 143 48" fill="none" xmlns="http://www.w3.org/2000/svg">
<rect x="0.5" y="0.5" width="142" height="47" rx="7.5" fill="#111827"/>
<rect x="0.5" y="0.5" width="142" height="47" rx="7.5" stroke="#111827"/>
<path d="M21.4676 35.4393L32.5038 23.975L21.4768 12.5312C21.1823 12.7094 21 13.1219 21 13.6619V34.3196C21.0039 34.8596 21.1796 35.242 21.4676 35.4393Z" fill="white"/>
<path d="M32.8998 23.6588L36.1871 20.2435L22.7999 12.618C22.5745 12.482 22.3184 12.41 22.0576 12.4097L32.8984 23.6574L32.8998 23.6588Z" fill="white"/>
<path d="M32.899 24.293L22.0239 35.5901C22.2969 35.5948 22.5657 35.5208 22.8005 35.3763L36.2141 27.7302L32.899 24.293Z" fill="white"/>
<path d="M41.0357 23.0106L36.5808 20.4683L33.2036 23.9768L36.6059 27.5073L41.0344 24.9718C41.9761 24.4332 41.9761 23.5465 41.0357 23.0106Z" fill="white"/>
<path d="M49.7667 18H48.8487L51.2247 11.493H52.2057L54.5907 18H53.6637L53.0787 16.38H50.3427L49.7667 18ZM51.6027 12.897L50.6127 15.615H52.8177L51.8187 12.897C51.7737 12.771 51.7287 12.618 51.7107 12.519C51.6927 12.609 51.6477 12.762 51.6027 12.897ZM56.2371 18L54.4641 13.599H55.3641L56.3271 16.056C56.4801 16.47 56.6061 16.839 56.6781 17.109C56.7501 16.821 56.8941 16.443 57.0471 16.056L58.0281 13.599H58.9101L57.0741 18H56.2371ZM60.668 18.108C59.723 18.108 59.165 17.577 59.165 16.776C59.165 15.966 59.768 15.462 60.803 15.381L62.189 15.273V15.147C62.189 14.409 61.748 14.148 61.154 14.148C60.443 14.148 60.038 14.463 60.038 14.994H59.3C59.3 14.076 60.056 13.473 61.19 13.473C62.279 13.473 63.017 14.049 63.017 15.237V18H62.297L62.207 17.289C61.982 17.793 61.379 18.108 60.668 18.108ZM60.911 17.451C61.712 17.451 62.198 16.929 62.198 16.101V15.867L61.073 15.957C60.326 16.029 60.02 16.317 60.02 16.749C60.02 17.217 60.362 17.451 60.911 17.451ZM64.6027 12.555C64.2967 12.555 64.0447 12.303 64.0447 11.997C64.0447 11.682 64.2967 11.439 64.6027 11.439C64.9087 11.439 65.1607 11.682 65.1607 11.997C65.1607 12.303 64.9087 12.555 64.6027 12.555ZM64.1887 18V13.599H65.0347V18H64.1887ZM67.1269 18H66.2809V11.376H67.1269V18ZM69.6593 18.108C68.7143 18.108 68.1563 17.577 68.1563 16.776C68.1563 15.966 68.7593 15.462 69.7943 15.381L71.1803 15.273V15.147C71.1803 14.409 70.7393 14.148 70.1453 14.148C69.4343 14.148 69.0293 14.463 69.0293 14.994H68.2913C68.2913 14.076 69.0473 13.473 70.1813 13.473C71.2703 13.473 72.0083 14.049 72.0083 15.237V18H71.2883L71.1983 17.289C70.9733 17.793 70.3703 18.108 69.6593 18.108ZM69.9023 17.451C70.7033 17.451 71.1893 16.929 71.1893 16.101V15.867L70.0643 15.957C69.3173 16.029 69.0113 16.317 69.0113 16.749C69.0113 17.217 69.3533 17.451 69.9023 17.451ZM73.9449 18H73.1799V11.376H74.0259V14.355C74.3139 13.779 74.9079 13.473 75.6279 13.473C76.8879 13.473 77.6439 14.463 77.6439 15.822C77.6439 17.154 76.8519 18.108 75.5739 18.108C74.8809 18.108 74.2959 17.802 74.0079 17.199L73.9449 18ZM74.0349 15.786C74.0349 16.704 74.5569 17.343 75.4209 17.343C76.2849 17.343 76.7979 16.695 76.7979 15.786C76.7979 14.886 76.2849 14.238 75.4209 14.238C74.5569 14.238 74.0349 14.886 74.0349 15.786ZM79.4404 18H78.5944V11.376H79.4404V18ZM82.5847 18.108C81.2887 18.108 80.3977 17.172 80.3977 15.804C80.3977 14.427 81.2707 13.473 82.5487 13.473C83.7997 13.473 84.6187 14.337 84.6187 15.642V15.957L81.2167 15.966C81.2797 16.893 81.7657 17.406 82.6027 17.406C83.2597 17.406 83.6917 17.136 83.8357 16.632H84.6277C84.4117 17.577 83.6737 18.108 82.5847 18.108ZM82.5487 14.184C81.8107 14.184 81.3427 14.625 81.2347 15.399H83.7727C83.7727 14.67 83.2957 14.184 82.5487 14.184ZM87.6646 16.722H88.4746C88.4746 17.172 88.8166 17.442 89.3746 17.442C89.9686 17.442 90.3106 17.199 90.3106 16.794C90.3106 16.497 90.1666 16.317 89.7076 16.2L88.9336 16.02C88.1506 15.831 87.7816 15.444 87.7816 14.796C87.7816 13.986 88.4656 13.473 89.4376 13.473C90.4006 13.473 91.0306 14.013 91.0486 14.85H90.2386C90.2206 14.409 89.9236 14.13 89.4106 14.13C88.8796 14.13 88.5826 14.364 88.5826 14.769C88.5826 15.066 88.7986 15.264 89.2306 15.372L90.0046 15.561C90.7516 15.741 91.1206 16.083 91.1206 16.74C91.1206 17.577 90.4006 18.108 89.3566 18.108C88.3216 18.108 87.6646 17.559 87.6646 16.722ZM91.7708 15.795C91.7708 14.436 92.7428 13.482 94.0658 13.482C95.3798 13.482 96.3518 14.436 96.3518 15.795C96.3518 17.154 95.3798 18.108 94.0658 18.108C92.7428 18.108 91.7708 17.154 91.7708 15.795ZM92.6258 15.795C92.6258 16.713 93.2108 17.352 94.0658 17.352C94.9118 17.352 95.5058 16.713 95.5058 15.795C95.5058 14.877 94.9118 14.238 94.0658 14.238C93.2108 14.238 92.6258 14.877 92.6258 15.795ZM97.0003 15.795C97.0003 14.436 97.9723 13.482 99.2953 13.482C100.609 13.482 101.581 14.436 101.581 15.795C101.581 17.154 100.609 18.108 99.2953 18.108C97.9723 18.108 97.0003 17.154 97.0003 15.795ZM97.8553 15.795C97.8553 16.713 98.4403 17.352 99.2953 17.352C100.141 17.352 100.735 16.713 100.735 15.795C100.735 14.877 100.141 14.238 99.2953 14.238C98.4403 14.238 97.8553 14.877 97.8553 15.795ZM103.364 18H102.518V13.599H103.283L103.373 14.274C103.652 13.77 104.21 13.473 104.831 13.473C105.992 13.473 106.523 14.184 106.523 15.309V18H105.677V15.498C105.677 14.607 105.263 14.247 104.615 14.247C103.823 14.247 103.364 14.814 103.364 15.669V18ZM109.867 15.795C109.867 14.436 110.839 13.482 112.162 13.482C113.476 13.482 114.448 14.436 114.448 15.795C114.448 17.154 113.476 18.108 112.162 18.108C110.839 18.108 109.867 17.154 109.867 15.795ZM110.722 15.795C110.722 16.713 111.307 17.352 112.162 17.352C113.008 17.352 113.602 16.713 113.602 15.795C113.602 14.877 113.008 14.238 112.162 14.238C111.307 14.238 110.722 14.877 110.722 15.795ZM116.231 18H115.385V13.599H116.15L116.24 14.274C116.519 13.77 117.077 13.473 117.698 13.473C118.859 13.473 119.39 14.184 119.39 15.309V18H118.544V15.498C118.544 14.607 118.13 14.247 117.482 14.247C116.69 14.247 116.231 14.814 116.231 15.669V18Z" fill="white"/>
<path d="M106.259 35.4097H107.888V24.3981H106.259V35.4097ZM120.929 28.3646L119.062 33.1388H119.007L117.069 28.3646H115.314L118.22 35.0371L116.564 38.749H118.262L122.741 28.3646H120.929ZM111.693 34.1588C111.158 34.1588 110.415 33.8902 110.415 33.2234C110.415 32.3742 111.341 32.0483 112.141 32.0483C112.857 32.0483 113.195 32.2042 113.63 32.4165C113.503 33.4365 112.633 34.1588 111.693 34.1588ZM111.889 28.1241C110.71 28.1241 109.488 28.6482 108.983 29.8101L110.429 30.4188C110.738 29.8101 111.313 29.611 111.917 29.611C112.759 29.611 113.616 30.121 113.63 31.0283V31.1411C113.334 30.971 112.703 30.7165 111.931 30.7165C110.373 30.7165 108.786 31.5806 108.786 33.1952C108.786 34.6689 110.064 35.6184 111.495 35.6184C112.591 35.6184 113.195 35.1225 113.574 34.5411H113.63V35.3912H115.202V31.1692C115.202 29.2146 113.756 28.1241 111.889 28.1241ZM101.823 29.7053H99.5062V25.9308H101.823C103.041 25.9308 103.732 26.9482 103.732 27.8176C103.732 28.6711 103.041 29.7053 101.823 29.7053ZM101.781 24.3981H97.8782V35.4097H99.5062V31.2379H101.781C103.586 31.2379 105.361 29.9184 105.361 27.8176C105.361 25.7168 103.586 24.3981 101.781 24.3981ZM80.499 34.1606C79.3739 34.1606 78.432 33.2102 78.432 31.9047C78.432 30.5852 79.3739 29.6198 80.499 29.6198C81.6102 29.6198 82.4814 30.5852 82.4814 31.9047C82.4814 33.2102 81.6102 34.1606 80.499 34.1606ZM82.3696 28.9812H82.3129C81.9472 28.5417 81.2445 28.1444 80.3585 28.1444C78.5019 28.1444 76.8006 29.7898 76.8006 31.9047C76.8006 34.0047 78.5019 35.6369 80.3585 35.6369C81.2445 35.6369 81.9472 35.2396 82.3129 34.7851H82.3696V35.3251C82.3696 36.7582 81.6102 37.5246 80.3864 37.5246C79.3878 37.5246 78.769 36.8005 78.5158 36.1901L77.0956 36.7864C77.5033 37.78 78.5865 39 80.3864 39C82.2989 39 83.9164 37.8646 83.9164 35.0978V28.3708H82.3696V28.9812ZM85.0415 35.4097H86.673V24.3973H85.0415V35.4097ZM89.0769 31.777C89.035 30.3298 90.1881 29.5916 91.0173 29.5916C91.665 29.5916 92.2132 29.9176 92.3956 30.3862L89.0769 31.777ZM94.1397 30.528C93.8307 29.6912 92.8879 28.1444 90.9615 28.1444C89.049 28.1444 87.4603 29.6621 87.4603 31.8907C87.4603 33.9906 89.035 35.6369 91.1439 35.6369C92.846 35.6369 93.8307 34.5869 94.2383 33.9765L92.9726 33.1247C92.551 33.7493 91.974 34.1606 91.1439 34.1606C90.3147 34.1606 89.7237 33.7774 89.344 33.0261L94.3081 30.9534L94.1397 30.528ZM54.5908 29.2939V30.883H58.3591C58.2465 31.777 57.9514 32.4297 57.5019 32.8834C56.9529 33.4374 56.0948 34.0479 54.5908 34.0479C52.2698 34.0479 50.4559 32.1602 50.4559 29.8189C50.4559 27.4767 52.2698 25.5899 54.5908 25.5899C55.8425 25.5899 56.7565 26.0867 57.4312 26.7254L58.5424 25.604C57.5997 24.6959 56.3488 24 54.5908 24C51.4126 24 48.7407 26.6117 48.7407 29.8189C48.7407 33.0261 51.4126 35.6369 54.5908 35.6369C56.306 35.6369 57.5997 35.0688 58.6122 34.0047C59.6536 32.9547 59.9765 31.4793 59.9765 30.2866C59.9765 29.9176 59.9486 29.5775 59.8919 29.2939H54.5908ZM64.2616 34.1606C63.1364 34.1606 62.1657 33.2243 62.1657 31.8907C62.1657 30.5421 63.1364 29.6198 64.2616 29.6198C65.3858 29.6198 66.3565 30.5421 66.3565 31.8907C66.3565 33.2243 65.3858 34.1606 64.2616 34.1606ZM64.2616 28.1444C62.2076 28.1444 60.5343 29.7194 60.5343 31.8907C60.5343 34.0479 62.2076 35.6369 64.2616 35.6369C66.3146 35.6369 67.9879 34.0479 67.9879 31.8907C67.9879 29.7194 66.3146 28.1444 64.2616 28.1444ZM72.3908 34.1606C71.2656 34.1606 70.295 33.2243 70.295 31.8907C70.295 30.5421 71.2656 29.6198 72.3908 29.6198C73.5159 29.6198 74.4857 30.5421 74.4857 31.8907C74.4857 33.2243 73.5159 34.1606 72.3908 34.1606ZM72.3908 28.1444C70.3377 28.1444 68.6644 29.7194 68.6644 31.8907C68.6644 34.0479 70.3377 35.6369 72.3908 35.6369C74.4438 35.6369 76.1171 34.0479 76.1171 31.8907C76.1171 29.7194 74.4438 28.1444 72.3908 28.1444Z" fill="white"/>
</svg>
